#!OML:ASF H:\ManfredObstacles\Project 1\Capture day 2\Session 1\male.ASF
:FULLY-SPECIFIED
:DEGREES
287
root 2.76392 14.6147 -0.123461 -154.101 -6.47125 180.075
lowerback 34.6548 6.32467 -1.94988
upperback 18.0103 1.60663 5.45176
thorax 1.87241 -1.80937 6.2251
lowerneck -29.4967 -2.27645 -1.76518
upperneck 22.4362 -2.96505 1.64109
head 12.333 -1.24928 0.359336
rclavicle -1.11319e-014 1.35174e-014
rhumerus -14.8766 13.1748 -90.866
rradius 85.5014
rwrist 41.2144
rhand -12.7741 -13.3341
rfingers 7.12502
rthumb 13.311 -42.889
lclavicle -1.11319e-014 1.35174e-014
lhumerus -7.14134 -39.0975 91.188
lradius 73.1192
lwrist -27.6406
lhand -15.9365 18.6965
lfingers 7.12502
lthumb 10.2614 48.4262
rfemur -67.1216 4.35112 20.9793
rtibia 55.917
rfoot -5.93961 -20.1822
rtoes -12.593
lfemur -60.7696 -8.74088 -15.8521
ltibia 67.6448
lfoot -2.35291 27.7784
ltoes -1.72321
288
root 2.77083 14.6105 -0.227407 -154.139 -6.28947 180.174
lowerback 34.4918 6.47068 -1.95039
upperback 18.0405 1.78775 5.65921
thorax 1.92848 -1.73839 6.39351
lowerneck -29.3424 -2.34592 -1.74025
upperneck 22.2722 -3.03168 1.5066
head 12.2382 -1.29736 0.293038
rclavicle -3.4191e-014 -7.7526e-015
rhumerus -14.5485 13.0126 -90.6014
rradius 85.012
rwrist 41.0946
rhand -12.642 -13.343
rfingers 7.12502
rthumb 13.4382 -42.8895
lclavicle -3.4191e-014 -7.7526e-015
lhumerus -6.97379 -39.4853 91.3917
lradius 73.1372
lwrist -27.4373
lhand -15.9868 18.7676
lfingers 7.12502
lthumb 10.2128 48.4997
rfemur -66.85 4.46048 21.2639
rtibia 56.2679
rfoot -6.55393 -20.1991
rtoes -12.2732
lfemur -60.8914 -8.76237 -15.775
ltibia 68.733
lfoot -1.82905 27.7152
ltoes -1.7084
289
root 2.77824 14.6069 -0.331764 -154.151 -6.14736 180.263
lowerback 34.2796 6.63537 -2.00671
upperback 18.078 1.97962 5.91816
thorax 2.00068 -1.66902 6.64446
lowerneck -29.2015 -2.41768 -1.70654
upperneck 22.1569 -3.09933 1.34045
head 12.1643 -1.3497 0.213157
rclavicle 1.11319e-014 3.21037e-014
rhumerus -14.2339 12.8877 -90.2614
rradius 84.472
rwrist 40.9423
rhand -12.6044 -13.34
rfingers 7.12502
rthumb 13.4745 -42.8841
lclavicle 1.11319e-014 3.21037e-014
lhumerus -6.81056 -39.9184 91.6485
lradius 73.1929
lwrist -27.2828
lhand -16.0682 18.8646
lfingers 7.12502
lthumb 10.1343 48.6005
rfemur -66.5802 4.59187 21.4991
rtibia 56.6036
rfoot -7.18663 -20.2576
rtoes -11.9399
lfemur -61.0901 -8.82403 -15.6746
ltibia 69.8524
lfoot -1.18624 27.541
ltoes -1.59723
290
root 2.78638 14.6033 -0.436305 -154.143 -6.02329 180.332
lowerback 34.0685 6.78076 -2.03166
upperback 18.1121 2.16199 6.12412
thorax 2.07386 -1.59589 6.82588
lowerneck -29.1516 -2.48947 -1.59495
upperneck 22.1476 -3.21007 1.19645
head 12.1483 -1.41007 0.120087
rclavicle -1.59028e-014 -2.08724e-014
rhumerus -13.9382 12.7394 -89.9928
rradius 83.9131
rwrist 40.7942
rhand -12.6205 -13.304
rfingers 7.12502
rthumb 13.459 -42.8491
lclavicle -1.59028e-014 -2.08724e-014
lhumerus -6.65228 -40.4517 91.8137
lradius 73.3061
lwrist -27.1991
lhand -16.1704 18.9663
lfingers 7.12502
lthumb 10.0358 48.707
rfemur -66.3214 4.75126 21.6759
rtibia 56.9323
rfoot -7.79697 -20.3724
rtoes -11.6842
lfemur -61.3523 -8.91244 -15.5684
ltibia 70.9918
lfoot -0.443875 27.2643
ltoes -1.36143
291
root 2.79503 14.6015 -0.541511 -154.169 -5.93157 180.377
lowerback 34.1182 6.94039 -1.94419
upperback 18.0726 2.40596 6.30052
thorax 1.97521 -1.47364 6.89643
lowerneck -29.3547 -2.60814 -1.36031
upperneck 22.3086 -3.43088 1.01674
head 12.243 -1.5102 -0.030636
rclavicle 0 -3.37934e-015
rhumerus -13.7176 12.4046 -89.7603
rradius 83.392
rwrist 40.6591
rhand -12.6586 -13.2261
rfingers 7.12502
rthumb 13.4223 -42.7736
lclavicle 0 -3.37934e-015
lhumerus -6.52836 -41.2363 91.9622
lradius 73.4718
lwrist -27.1505
lhand -16.2837 19.0733
lfingers 7.12502
lthumb 9.92648 48.8192
rfemur -66.0062 4.90392 21.8175
rtibia 57.2482
rfoot -8.36189 -20.5256
rtoes -11.523
lfemur -61.5996 -9.04648 -15.4654
ltibia 72.1282
lfoot 0.400391 26.8909
ltoes -0.993964
292
root 2.80416 14.601 -0.64622 -154.203 -5.83218 180.409
lowerback 34.1656 7.08481 -1.92492
upperback 18.0477 2.59939 6.47904
thorax 1.89438 -1.38618 7.01975
lowerneck -29.5432 -2.69629 -1.18068
upperneck 22.453 -3.58636 0.840855
head 12.3281 -1.58586 -0.159359
rclavicle -5.00937e-014 -2.04748e-014
rhumerus -13.5014 12.2579 -89.5265
rradius 82.8968
rwrist 40.5133
rhand -12.6765 -13.1171
rfingers 7.12502
rthumb 13.405 -42.6658
lclavicle -5.00937e-014 -2.04748e-014
lhumerus -6.43716 -41.8754 92.1295
lradius 73.6802
lwrist -27.1876
lhand -16.3836 19.1576
lfingers 7.12502
lthumb 9.83005 48.9081
rfemur -65.6723 5.06106 21.9408
rtibia 57.5415
rfoot -8.86824 -20.6941
rtoes -11.4442
lfemur -61.8602 -9.18351 -15.369
ltibia 73.2562
lfoot 1.30695 26.4272
ltoes -0.538453
293
root 2.81331 14.6017 -0.750227 -154.24 -5.71959 180.44
lowerback 34.2147 7.2346 -1.92194
upperback 18.0298 2.79146 6.64744
thorax 1.81937 -1.30114 7.14078
lowerneck -29.6879 -2.77938 -0.997013
upperneck 22.5352 -3.7341 0.661506
head 12.3799 -1.65861 -0.288059
rclavicle -8.82604e-014 -4.69132e-014
rhumerus -13.3042 12.1506 -89.3133
rradius 82.4352
rwrist 40.4018
rhand -12.6649 -12.9952
rfingers 7.12502
rthumb 13.4162 -42.5432
lclavicle -8.82604e-014 -4.69132e-014
lhumerus -6.37342 -42.5025 92.2838
lradius 73.9364
lwrist -27.2477
lhand -16.455 19.2184
lfingers 7.12502
lthumb 9.76119 48.9722
rfemur -65.324 5.21177 22.072
rtibia 57.8035
rfoot -9.33208 -20.8624
rtoes -11.4039
lfemur -62.1454 -9.30852 -15.273
ltibia 74.3719
lfoot 2.26838 25.866
ltoes 0.00190431
294
root 2.82215 14.6038 -0.853435 -154.291 -5.5878 180.479
lowerback 34.3016 7.29486 -1.8883
upperback 18.0133 2.86623 6.72863
thorax 1.75696 -1.27051 7.18621
lowerneck -29.7884 -2.81031 -0.906286
upperneck 22.5634 -3.79286 0.578038
head 12.4057 -1.68719 -0.347345
rclavicle -2.38542e-014 -9.54166e-015
rhumerus -13.1111 12.2587 -89.2259
rradius 81.9694
rwrist 40.3424
rhand -12.6324 -12.8763
rfingers 7.12502
rthumb 13.4475 -42.4222
lclavicle -2.38542e-014 -9.54166e-015
lhumerus -6.36913 -42.9049 92.3518
lradius 74.241
lwrist -27.3284
lhand -16.5063 19.245
lfingers 7.12502
lthumb 9.7117 49.0011
rfemur -64.9397 5.3547 22.2238
rtibia 58.0277
rfoot -9.78714 -21.0162
rtoes -11.369
lfemur -62.4332 -9.40629 -15.1822
ltibia 75.472
lfoot 3.27054 25.2078
ltoes 0.562543
295
root 2.83047 14.6065 -0.955396 -154.338 -5.43557 180.527
lowerback 34.3932 7.21757 -1.82591
upperback 18.0052 2.75913 6.69157
thorax 1.73785 -1.32588 7.14405
lowerneck -29.8069 -2.75417 -0.968565
upperneck 22.5038 -3.6993 0.639677
head 12.3877 -1.64257 -0.295526
rclavicle -4.92986e-014 5.96354e-016
rhumerus -12.8926 12.69 -89.3108
rradius 81.4866
rwrist 40.3136
rhand -12.5967 -12.8085
rfingers 7.12502
rthumb 13.4819 -42.3522
lclavicle -4.92986e-014 5.96354e-016
lhumerus -6.42357 -42.953 92.2799
lradius 74.5968
lwrist -27.4254
lhand -16.5371 19.2492
lfingers 7.12502
lthumb 9.68198 49.0067
rfemur -64.5437 5.48383 22.3977
rtibia 58.2141
rfoot -10.2642 -21.136
rtoes -11.3016
lfemur -62.7431 -9.47037 -15.0967
ltibia 76.5565
lfoot 4.28801 24.4708
ltoes 1.03315
296
root 2.83823 14.6102 -1.05695 -154.388 -5.25797 180.587
lowerback 34.522 7.02609 -1.69356
upperback 17.9934 2.5187 6.52549
thorax 1.73359 -1.43635 6.96612
lowerneck -29.8678 -2.63543 -1.09412
upperneck 22.4769 -3.51966 0.806836
head 12.3934 -1.5498 -0.177588
rclavicle -3.26007e-014 -3.77691e-015
rhumerus -12.6708 13.287 -89.5832
rradius 80.9768
rwrist 40.3761
rhand -12.5709 -12.763
rfingers 7.12502
rthumb 13.5068 -42.305
lclavicle -3.26007e-014 -3.77691e-015
lhumerus -6.54745 -42.7744 92.0668
lradius 74.9988
lwrist -27.5022
lhand -16.6127 19.221
lfingers 7.12502
lthumb 9.60906 48.9819
rfemur -64.1232 5.61137 22.5857
rtibia 58.3629
rfoot -10.7671 -21.2161
rtoes -11.2052
lfemur -63.0574 -9.49306 -15.0193
ltibia 77.6202
lfoot 5.22469 23.6781
ltoes 1.56829
297
root 2.8456 14.6152 -1.15864 -154.46 -5.0812 180.649
lowerback 34.777 6.64662 -1.53989
upperback 17.957 2.02503 6.24905
thorax 1.69704 -1.6696 6.73419
lowerneck -30.0655 -2.39731 -1.44846
upperneck 22.5542 -3.1078 1.10407
head 12.4689 -1.35545 0.0695624
rclavicle 1.43125e-014 1.799e-014
rhumerus -12.4325 14.3495 -90.0059
rradius 80.4328
rwrist 40.4865
rhand -12.5474 -12.7594
rfingers 7.12502
rthumb 13.5294 -42.2999
lclavicle 1.43125e-014 1.799e-014
lhumerus -6.79551 -42.0432 91.7872
lradius 75.4369
lwrist -27.6492
lhand -16.7578 19.155
lfingers 7.12502
lthumb 9.46902 48.9222
rfemur -63.6463 5.72017 22.7794
rtibia 58.4709
rfoot -11.2876 -21.2598
rtoes -11.127
lfemur -63.3384 -9.49799 -14.9585
ltibia 78.6587
lfoot 6.06763 22.8726
ltoes 2.04344
298
root 2.85236 14.6207 -1.26048 -154.534 -4.91313 180.704
lowerback 35.0538 6.43299 -1.363
upperback 17.9069 1.77095 6.07036
thorax 1.59992 -1.7808 6.52442
lowerneck -30.2942 -2.28211 -1.60521
upperneck 22.6536 -2.91602 1.25744
head 12.5533 -1.26071 0.188389
rclavicle 1.43125e-014 -5.1684e-015
rhumerus -12.2572 14.8686 -90.2967
rradius 79.9342
rwrist 40.7022
rhand -12.5086 -12.781
rfingers 7.12502
rthumb 13.5668 -42.319
lclavicle 1.43125e-014 -5.1684e-015
lhumerus -7.04671 -41.7668 91.6658
lradius 75.8837
lwrist -27.7669
lhand -16.9302 19.0827
lfingers 7.12502
lthumb 9.3027 48.8575
rfemur -63.1486 5.8067 22.961
rtibia 58.5552
rfoot -11.7988 -21.2723
rtoes -11.1196
lfemur -63.6088 -9.49725 -14.917
ltibia 79.648
lfoot 6.77173 22.1068
ltoes 2.36626
299
root 2.86111 14.6257 -1.36193 -154.615 -4.55737 180.824
lowerback 35.2361 6.05399 -1.14203
upperback 18.09 1.19306 5.61639
thorax 1.84252 -2.07504 6.08923
lowerneck -31.2046 -1.98964 -1.93889
upperneck 22.8763 -2.43877 1.63893
head 12.812 -1.01641 0.477506
rclavicle -6.36111e-015 4.96962e-015
rhumerus -11.5469 15.9764 -90.8624
rradius 79.3143
rwrist 40.9151
rhand -12.4227 -12.837
rfingers 7.12502
rthumb 13.6496 -42.3695
lclavicle -6.36111e-015 4.96962e-015
lhumerus -6.82526 -40.8247 90.8283
lradius 76.3674
lwrist -27.9379
lhand -17.1272 18.9978
lfingers 7.12502
lthumb 9.11261 48.7809
rfemur -62.6461 6.04787 23.146
rtibia 58.6101
rfoot -12.239 -21.226
rtoes -11.2528
lfemur -63.835 -9.2768 -14.9093
ltibia 80.6037
lfoot 7.27278 21.4406
ltoes 2.46741
